<svg width="277" height="241" viewBox="0 0 277 241" fill="none" xmlns="http://www.w3.org/2000/svg">
<path d="M204.235 0.317025C204.725 0.114037 205.275 0.114037 205.765 0.317025L349.192 59.7261C349.682 59.9291 350.071 60.3184 350.274 60.8085L409.683 204.235C409.886 204.725 409.886 205.275 409.683 205.765L350.274 349.192C350.071 349.682 349.682 350.071 349.192 350.274L205.765 409.683C205.275 409.886 204.725 409.886 204.235 409.683L60.8085 350.274C60.3184 350.071 59.9291 349.682 59.7261 349.192L0.317025 205.765C0.114037 205.275 0.114037 204.725 0.317025 204.235L59.7261 60.8085C59.9291 60.3184 60.3184 59.9291 60.8085 59.7261L204.235 0.317025Z" fill="#F9D923"/>
</svg>
