<svg width="265" height="266" viewBox="0 0 265 266" fill="none" xmlns="http://www.w3.org/2000/svg">
<path d="M130.582 1.87862C131.145 -0.0341167 133.855 -0.0341144 134.418 1.87863L155.478 73.3294C155.839 74.5515 157.235 75.1298 158.353 74.5203L223.768 38.8886C225.52 37.9347 227.435 39.8505 226.481 41.6016L190.85 107.017C190.24 108.135 190.818 109.531 192.041 109.892L263.491 130.952C265.404 131.515 265.404 134.225 263.491 134.788L192.041 155.848C190.818 156.209 190.24 157.605 190.85 158.723L226.481 224.138C227.435 225.89 225.52 227.805 223.768 226.851L158.353 191.22C157.235 190.61 155.839 191.188 155.478 192.411L134.418 263.861C133.855 265.774 131.145 265.774 130.582 263.861L109.522 192.411C109.161 191.188 107.765 190.61 106.647 191.22L41.2316 226.851C39.4805 227.805 37.5647 225.89 38.5186 224.138L74.1503 158.723C74.7598 157.605 74.1815 156.209 72.9594 155.848L1.50863 134.788C-0.404112 134.225 -0.404109 131.515 1.50863 130.952L72.9594 109.892C74.1815 109.531 74.7598 108.135 74.1503 107.017L38.5186 41.6016C37.5647 39.8505 39.4805 37.9347 41.2316 38.8886L106.647 74.5203C107.765 75.1298 109.161 74.5515 109.522 73.3294L130.582 1.87862Z" fill="#36AE7C"/>
</svg>
