<svg width="290" height="559" viewBox="0 0 290 559" fill="none" xmlns="http://www.w3.org/2000/svg">
<path d="M8.51184 18.1856C8.7717 15.8087 12.2283 15.8087 12.4882 18.1856L31.6427 193.392C31.841 195.205 34.1654 195.828 35.244 194.357L139.435 52.201C140.849 50.2725 143.842 52.0008 142.879 54.1891L71.8643 215.499C71.1291 217.169 72.8307 218.871 74.5006 218.136L235.811 147.121C237.999 146.158 239.728 149.151 237.799 150.565L95.6433 254.756C94.1717 255.835 94.7945 258.159 96.6083 258.357L271.814 277.512C274.191 277.772 274.191 281.228 271.814 281.488L96.6083 300.643C94.7945 300.841 94.1717 303.165 95.6433 304.244L237.799 408.435C239.727 409.849 237.999 412.842 235.811 411.879L74.5006 340.864C72.8307 340.129 71.1291 341.831 71.8643 343.501L142.879 504.811C143.842 506.999 140.849 508.727 139.435 506.799L35.244 364.643C34.1654 363.172 31.841 363.795 31.6427 365.608L12.4882 540.814C12.2283 543.191 8.7717 543.191 8.51184 540.814L-10.6427 365.608C-10.841 363.795 -13.1654 363.172 -14.244 364.643L-118.435 506.799C-119.849 508.727 -122.842 506.999 -121.879 504.811L-50.8643 343.501C-50.1291 341.831 -51.8307 340.129 -53.5006 340.864L-214.811 411.879C-216.999 412.842 -218.728 409.849 -216.799 408.435L-74.6433 304.244C-73.1717 303.165 -73.7945 300.841 -75.6083 300.643L-250.814 281.488C-253.191 281.228 -253.191 277.772 -250.814 277.512L-75.6083 258.357C-73.7945 258.159 -73.1717 255.835 -74.6433 254.756L-216.799 150.565C-218.728 149.151 -216.999 146.158 -214.811 147.121L-53.5006 218.136C-51.8307 218.871 -50.1291 217.169 -50.8643 215.499L-121.879 54.1891C-122.842 52.0008 -119.849 50.2725 -118.435 52.201L-14.244 194.357C-13.1654 195.828 -10.841 195.205 -10.6427 193.392L8.51184 18.1856Z" fill="#F9D923"/>
</svg>
