<svg width="64" height="32" viewBox="0 0 64 32" fill="none" xmlns="http://www.w3.org/2000/svg">
<g id="icon/color">
<g id="BA">
<path d="M0.0664062 32V0H17.6565C20.9028 0 23.3708 0.761905 25.0602 2.28571C26.7496 3.80952 27.5944 5.99586 27.5944 8.84472C27.5944 10.501 27.2797 11.8923 26.6503 13.0186C26.054 14.1449 25.259 15.0393 24.2652 15.7019C25.6233 16.2319 26.6999 17.0104 27.495 18.0373C28.3231 19.0311 28.7372 20.5217 28.7372 22.5093C28.7372 25.5238 27.8097 27.8592 25.9546 29.5155C24.0995 31.1718 21.466 32 18.054 32H0.0664062Z" fill="#002F6C"/>
<path d="M29.4977 32L41.771 0H51.6592L63.9325 32H54.1933L51.5101 25.1925H41.8704L39.2368 32H29.4977ZM43.1126 18.4845H50.2679L46.6902 9.09317L43.1126 18.4845Z" fill="#002F6C"/>
</g>
<path id="Vector 7" d="M12.664 4.72718V27.8049H10.3616L11.4861 6.22643L12.664 4.72718Z" fill="#FBFBFB"/>
<path id="Vector 7 (Stroke)" fill-rule="evenodd" clip-rule="evenodd" d="M12.9891 3.38293L14.9643 5.866L16.1498 28.4992H9.7168L10.9024 5.86442L12.9891 3.38293ZM11.109 5.94591L9.93866 28.2886H15.928L14.7576 5.94432L12.9846 3.71546L11.109 5.94591ZM12.7709 4.4228V27.9102H10.2523L11.3842 6.18763L12.7709 4.4228ZM11.591 6.26523L10.4741 27.6996H12.5603V5.03156L11.591 6.26523Z" fill="#FBFBFB"/>
</g>
</svg>
