<svg width="18" height="20" viewBox="0 0 18 20" fill="none" xmlns="http://www.w3.org/2000/svg">
<g id="events/bolt" clip-path="url(#clip0_171_1536)">
<path id="Vector" d="M13.6483 1.74217C13.8788 1.20702 13.7069 0.582018 13.2343 0.238268C12.7616 -0.105482 12.1171 -0.0742316 11.6757 0.308581L1.67569 9.05858C1.28507 9.40233 1.14444 9.95311 1.32804 10.4375C1.51163 10.9219 1.98038 11.25 2.49991 11.25H6.85538L3.85147 18.2578C3.621 18.793 3.79288 19.418 4.26554 19.7617C4.73819 20.1055 5.38272 20.0742 5.82413 19.6914L15.8241 10.9414C16.2148 10.5976 16.3554 10.0469 16.1718 9.56249C15.9882 9.07811 15.5233 8.75389 14.9999 8.75389H10.6444L13.6483 1.74217Z" fill="#343434"/>
</g>
<defs>
<clipPath id="clip0_171_1536">
<rect width="17.5" height="20" fill="white"/>
</clipPath>
</defs>
</svg>
