<svg width="11" height="12" viewBox="0 0 11 12" fill="none" xmlns="http://www.w3.org/2000/svg">
<g id="events/calendar-day" clip-path="url(#clip0_417_1730)">
<path id="Vector" d="M3 0C3.41484 0 3.75 0.335156 3.75 0.75V1.5H6.75V0.75C6.75 0.335156 7.08516 0 7.5 0C7.91484 0 8.25 0.335156 8.25 0.75V1.5H9.375C9.99609 1.5 10.5 2.00391 10.5 2.625V3.75H0V2.625C0 2.00391 0.503906 1.5 1.125 1.5H2.25V0.75C2.25 0.335156 2.58516 0 3 0ZM0 4.5H10.5V10.875C10.5 11.4961 9.99609 12 9.375 12H1.125C0.503906 12 0 11.4961 0 10.875V4.5ZM1.875 6C1.66875 6 1.5 6.16875 1.5 6.375V8.625C1.5 8.83125 1.66875 9 1.875 9H4.125C4.33125 9 4.5 8.83125 4.5 8.625V6.375C4.5 6.16875 4.33125 6 4.125 6H1.875Z" fill="#FBFBFB"/>
</g>
<defs>
<clipPath id="clip0_417_1730">
<rect width="10.5" height="12" fill="white"/>
</clipPath>
</defs>
</svg>
