<svg width="12" height="12" viewBox="0 0 12 12" fill="none" xmlns="http://www.w3.org/2000/svg">
<g id="events/glass-martini" clip-path="url(#clip0_431_1958)">
<path id="Vector" d="M11.2962 1.29601C11.7743 0.817658 11.4357 0 10.7595 0H0.760453C0.084322 0 -0.254306 0.817658 0.223823 1.29601L5.03999 6.11196V10.4401H3.77998C3.28295 10.4401 2.87997 10.8431 2.87997 11.3401C2.87997 11.4396 2.96052 11.5201 3.05997 11.5201H8.46003C8.55948 11.5201 8.64003 11.4396 8.64003 11.3401C8.64003 10.8431 8.23705 10.4401 7.74002 10.4401H6.48001V6.11196L11.2962 1.29601ZM9.98486 1.08001L8.90485 2.16002H2.61537L1.53536 1.08001H9.98486Z" fill="#FC8A29"/>
</g>
<defs>
<clipPath id="clip0_431_1958">
<rect width="12" height="12" fill="white"/>
</clipPath>
</defs>
</svg>
