<svg width="10" height="10" viewBox="0 0 10 10" fill="none" xmlns="http://www.w3.org/2000/svg">
<g id="essentials/linkedin-in" clip-path="url(#clip0_604_3313)">
<path id="Vector" d="M2.6803 8.59999H0.938799V2.99187H2.6803V8.59999ZM1.80861 2.22687C1.25174 2.22687 0.800049 1.76562 0.800049 1.20874C0.800049 0.941255 0.906308 0.684723 1.09545 0.495581C1.28459 0.306439 1.54112 0.20018 1.80861 0.20018C2.0761 0.20018 2.33263 0.306439 2.52177 0.495581C2.71091 0.684723 2.81717 0.941255 2.81717 1.20874C2.81717 1.76562 2.3653 2.22687 1.80861 2.22687ZM9.19817 8.59999H7.46042V5.86999C7.46042 5.21937 7.4473 4.38499 6.55499 4.38499C5.64955 4.38499 5.5108 5.09187 5.5108 5.82312V8.59999H3.77117V2.99187H5.44142V3.75687H5.4658C5.6983 3.31624 6.26624 2.85124 7.11355 2.85124C8.87605 2.85124 9.20005 4.01187 9.20005 5.51937V8.59999H9.19817Z" fill="#FBFBFB"/>
</g>
<defs>
<clipPath id="clip0_604_3313">
<rect width="9.6" height="9.6" fill="white" transform="translate(0.199951 0.199997)"/>
</clipPath>
</defs>
</svg>
