<svg width="12" height="12" viewBox="0 0 12 12" fill="none" xmlns="http://www.w3.org/2000/svg">
<g id="events/paint-brush" clip-path="url(#clip0_604_432)">
<path id="Vector" d="M3.91452 7.25016C2.97421 7.31063 2.12085 7.66875 1.63663 8.94469C1.58155 9.09023 1.44913 9.17859 1.29468 9.17859C1.03429 9.17859 0.229209 8.53008 -0.000244141 8.37352C-9.76563e-06 10.3036 0.888974 12 2.99999 12C4.77796 12 5.99999 10.9741 5.99999 9.18305C5.99999 9.11016 5.98476 9.04055 5.97726 8.96906L3.91452 7.25016ZM10.7318 0C10.3765 0 10.0434 0.157266 9.78937 0.385547C4.99851 4.66523 4.49999 4.76578 4.49999 6.02555C4.49999 6.34664 4.57616 6.65273 4.7046 6.93258L6.20038 8.17898C6.36937 8.22117 6.54351 8.25 6.72515 8.25C8.18085 8.25 9.0246 7.1843 11.6742 2.23922C11.8472 1.90289 12 1.53961 12 1.16133C12 0.48375 11.3906 0 10.7318 0Z" fill="#B07C17"/>
</g>
<defs>
<clipPath id="clip0_604_432">
<rect width="12" height="12" fill="white"/>
</clipPath>
</defs>
</svg>
