<svg width="21" height="16" viewBox="0 0 21 16" fill="none" xmlns="http://www.w3.org/2000/svg">
<g id="essentials/user-pen-solid" clip-path="url(#clip0_383_3058)">
<path id="Vector" d="M7.5 8C8.56087 8 9.57828 7.57857 10.3284 6.82843C11.0786 6.07828 11.5 5.06087 11.5 4C11.5 2.93913 11.0786 1.92172 10.3284 1.17157C9.57828 0.421427 8.56087 0 7.5 0C6.43913 0 5.42172 0.421427 4.67157 1.17157C3.92143 1.92172 3.5 2.93913 3.5 4C3.5 5.06087 3.92143 6.07828 4.67157 6.82843C5.42172 7.57857 6.43913 8 7.5 8ZM6.07188 9.5C2.99375 9.5 0.5 11.9937 0.5 15.0719C0.5 15.5844 0.915625 16 1.42813 16H10.5875C10.4906 15.725 10.4719 15.425 10.5437 15.1313L11.0125 13.2531C11.1 12.9 11.2812 12.5813 11.5375 12.325L12.7969 11.0656C11.7937 10.0969 10.4313 9.5 8.925 9.5H6.07188ZM19.6812 7.36562C19.1938 6.87812 18.4031 6.87812 17.9125 7.36562L16.9937 8.28438L19.2125 10.5031L20.1313 9.58438C20.6187 9.09688 20.6187 8.30625 20.1313 7.81563L19.6812 7.36562ZM12.2469 13.0312C12.1187 13.1594 12.0281 13.3187 11.9844 13.4969L11.5156 15.375C11.4719 15.5469 11.5219 15.725 11.6469 15.85C11.7719 15.975 11.95 16.025 12.1219 15.9812L14 15.5125C14.175 15.4688 14.3375 15.3781 14.4656 15.25L18.5031 11.2094L16.2844 8.99063L12.2469 13.0312Z" fill="#002F6C"/>
</g>
<defs>
<clipPath id="clip0_383_3058">
<rect width="20" height="16" fill="white" transform="translate(0.5)"/>
</clipPath>
</defs>
</svg>
