<svg width="24" height="24" viewBox="0 0 24 24" fill="none" xmlns="http://www.w3.org/2000/svg">
<g id="essentials/xmark">
<path id="Vector" d="M20.181 6.84766C20.832 6.19661 20.832 5.13932 20.181 4.48828C19.5299 3.83724 18.4727 3.83724 17.8216 4.48828L12.3372 9.97786L6.84766 4.49349C6.19661 3.84245 5.13932 3.84245 4.48828 4.49349C3.83724 5.14453 3.83724 6.20182 4.48828 6.85286L9.97786 12.3372L4.49349 17.8268C3.84245 18.4779 3.84245 19.5352 4.49349 20.1862C5.14453 20.8372 6.20182 20.8372 6.85286 20.1862L12.3372 14.6966L17.8268 20.181C18.4779 20.832 19.5352 20.832 20.1862 20.181C20.8372 19.5299 20.8372 18.4727 20.1862 17.8216L14.6966 12.3372L20.181 6.84766Z" fill="#343434"/>
</g>
</svg>
