<svg width="64" height="32" viewBox="0 0 64 32" fill="none" xmlns="http://www.w3.org/2000/svg">
<g id="icon/white">
<g id="BA">
<path d="M0.0668945 32V0H17.657C20.9033 0 23.3712 0.761905 25.0607 2.28571C26.7501 3.80952 27.5948 5.99586 27.5948 8.84472C27.5948 10.501 27.2801 11.8923 26.6507 13.0186C26.0545 14.1449 25.2594 15.0393 24.2656 15.7019C25.6238 16.2319 26.7004 17.0104 27.4955 18.0373C28.3236 19.0311 28.7377 20.5217 28.7377 22.5093C28.7377 25.5238 27.8102 27.8592 25.9551 29.5155C24.1 31.1718 21.4665 32 18.0545 32H0.0668945Z" fill="#FBFBFB"/>
<path d="M29.4982 32L41.7715 0H51.6597L63.933 32H54.1938L51.5106 25.1925H41.8709L39.2373 32H29.4982ZM43.1131 18.4845H50.2684L46.6907 9.09317L43.1131 18.4845Z" fill="#FBFBFB"/>
</g>
<path id="Vector 7" d="M12.6653 4.72718V27.8049H10.3628L11.4873 6.22643L12.6653 4.72718Z" fill="#343434"/>
<path id="Vector 7 (Stroke)" fill-rule="evenodd" clip-rule="evenodd" d="M12.9886 3.38293L14.9638 5.866L16.1494 28.4992H9.71631L10.9019 5.86442L12.9886 3.38293ZM11.1085 5.94591L9.93817 28.2886H15.9275L14.7571 5.94432L12.9841 3.71546L11.1085 5.94591ZM12.7704 4.4228V27.9102H10.2518L11.3837 6.18763L12.7704 4.4228ZM11.5905 6.26523L10.4736 27.6996H12.5598V5.03156L11.5905 6.26523Z" fill="#343434"/>
</g>
</svg>
