<svg width="188" height="33" viewBox="0 0 188 33" fill="none" xmlns="http://www.w3.org/2000/svg">
<path d="M37.4277 32.2586V1.93994H54.0936C57.1694 1.93994 59.5077 2.66182 61.1083 4.10556C62.709 5.54931 63.5093 7.62077 63.5093 10.32C63.5093 11.8892 63.2112 13.2074 62.6149 14.2746C62.0499 15.3417 61.2966 16.1891 60.3551 16.8168C61.6419 17.319 62.6619 18.0566 63.4152 19.0295C64.1998 19.9711 64.5922 21.3835 64.5922 23.2666C64.5922 26.1227 63.7134 28.3354 61.9557 29.9047C60.1981 31.474 57.703 32.2586 54.4702 32.2586H37.4277Z" fill="#FBFBFB"/>
<path d="M65.3127 32.2586L76.9411 1.93994H86.3098L97.9382 32.2586H88.7108L86.1686 25.8089H77.0353L74.5401 32.2586H65.3127ZM78.2122 19.4532H84.9916L81.6019 10.5553L78.2122 19.4532Z" fill="#FBFBFB"/>
<path d="M49.3641 6.41882V28.284H47.1826L48.248 7.8393L49.3641 6.41882Z" fill="#343434"/>
<path fill-rule="evenodd" clip-rule="evenodd" d="M49.6707 5.14514L51.5421 7.49775L52.6654 28.9418H46.5703L47.6937 7.49624L49.6707 5.14514ZM47.8894 7.57345L46.7805 28.7423H52.4552L51.3462 7.57195L49.6664 5.4602L47.8894 7.57345ZM49.4639 6.13037V28.3837H47.0777L48.1501 7.80247L49.4639 6.13037ZM48.3461 7.876L47.2878 28.1842H49.2644V6.70715L48.3461 7.876Z" fill="#343434"/>
<path d="M130.009 9.28364C132.753 9.28364 134.959 10.1311 136.627 11.8259C138.321 13.4938 139.169 15.8343 139.169 18.8473V31.9621H133.519V19.6141C133.519 17.8654 133.075 16.5338 132.188 15.6191C131.3 14.6775 130.089 14.2067 128.556 14.2067C127.022 14.2067 125.798 14.6775 124.884 15.6191C123.996 16.5338 123.552 17.8654 123.552 19.6141V31.9621H117.903V19.6141C117.903 17.8654 117.459 16.5338 116.571 15.6191C115.683 14.6775 114.473 14.2067 112.939 14.2067C111.379 14.2067 110.141 14.6775 109.227 15.6191C108.339 16.5338 107.895 17.8654 107.895 19.6141V31.9621H102.246V9.60646H107.895V12.3101C108.621 11.3686 109.55 10.6287 110.679 10.0907C111.836 9.55266 113.101 9.28364 114.473 9.28364C116.221 9.28364 117.782 9.66027 119.154 10.4135C120.526 11.1399 121.588 12.1891 122.341 13.5611C123.068 12.2698 124.117 11.234 125.489 10.4539C126.888 9.67372 128.394 9.28364 130.009 9.28364Z" fill="#FBFBFB"/>
<path d="M154.457 32.3253C152.304 32.3253 150.368 31.8545 148.646 30.9129C146.924 29.9445 145.565 28.5859 144.57 26.8373C143.602 25.0886 143.117 23.071 143.117 20.7843C143.117 18.4976 143.615 16.48 144.61 14.7313C145.633 12.9827 147.018 11.6376 148.767 10.696C150.515 9.72752 152.466 9.24329 154.618 9.24329C156.77 9.24329 158.721 9.72752 160.469 10.696C162.218 11.6376 163.59 12.9827 164.585 14.7313C165.608 16.48 166.119 18.4976 166.119 20.7843C166.119 23.071 165.594 25.0886 164.545 26.8373C163.523 28.5859 162.124 29.9445 160.348 30.9129C158.6 31.8545 156.636 32.3253 154.457 32.3253ZM154.457 27.4022C155.479 27.4022 156.434 27.1601 157.322 26.6759C158.236 26.1647 158.963 25.4115 159.501 24.4161C160.039 23.4207 160.308 22.2101 160.308 20.7843C160.308 18.659 159.743 17.0315 158.613 15.9016C157.51 14.7448 156.151 14.1664 154.537 14.1664C152.923 14.1664 151.565 14.7448 150.462 15.9016C149.386 17.0315 148.848 18.659 148.848 20.7843C148.848 22.9096 149.372 24.5506 150.421 25.7074C151.497 26.8373 152.843 27.4022 154.457 27.4022Z" fill="#FBFBFB"/>
<path d="M178.818 32.3253C176.988 32.3253 175.347 32.0025 173.895 31.3568C172.442 30.6843 171.285 29.7831 170.424 28.6532C169.59 27.5233 169.133 26.2723 169.052 24.9003H174.742C174.85 25.7612 175.267 26.4741 175.993 27.039C176.746 27.604 177.674 27.8865 178.777 27.8865C179.853 27.8865 180.687 27.6712 181.279 27.2408C181.898 26.8104 182.207 26.2589 182.207 25.5863C182.207 24.86 181.831 24.3219 181.077 23.9722C180.351 23.5956 179.181 23.192 177.567 22.7616C175.899 22.3581 174.527 21.9411 173.451 21.5107C172.402 21.0802 171.487 20.4211 170.707 19.5333C169.953 18.6456 169.577 17.4484 169.577 15.9419C169.577 14.7044 169.927 13.5745 170.626 12.5522C171.352 11.53 172.375 10.7229 173.693 10.1311C175.038 9.53921 176.612 9.24329 178.414 9.24329C181.077 9.24329 183.203 9.91584 184.79 11.2609C186.377 12.5791 187.251 14.3681 187.413 16.6279H182.006C181.925 15.7401 181.548 15.0407 180.876 14.5296C180.23 13.9915 179.356 13.7225 178.253 13.7225C177.23 13.7225 176.437 13.9108 175.872 14.2874C175.334 14.6641 175.065 15.1887 175.065 15.8612C175.065 16.6145 175.441 17.1929 176.195 17.5964C176.948 17.973 178.118 18.3631 179.705 18.7666C181.32 19.1702 182.651 19.5872 183.7 20.0176C184.75 20.448 185.651 21.1206 186.404 22.0352C187.184 22.923 187.588 24.1067 187.615 25.5863C187.615 26.8776 187.251 28.0344 186.525 29.0567C185.826 30.079 184.803 30.886 183.458 31.4779C182.14 32.0428 180.593 32.3253 178.818 32.3253Z" fill="#FBFBFB"/>
<path d="M8.59922 32.2486L0 10.3189H5.19632L11.3123 27.3445L17.4284 10.3189H22.5787L14.0255 32.2486H8.59922Z" fill="#FBFBFB"/>
<path d="M27.7276 5.73869V1.57483H33.1998V5.73869H27.7276ZM28.1415 32.2486V14.1589H24.8305L25.2904 10.3189H33.1538V32.2486H28.1415Z" fill="#FBFBFB"/>
</svg>
