<svg width="178" height="42" viewBox="0 0 178 42" fill="none" xmlns="http://www.w3.org/2000/svg">
<path d="M8.288 41L0.504 13.896H5.152L8.848 27.784C9.10933 28.6053 9.48267 30.024 9.968 32.04L10.64 34.56H10.864C11.088 33.664 11.5733 31.8347 12.32 29.072L12.656 27.896L16.352 13.896H20.608L12.88 41H8.288ZM23.6307 3.76H27.8867V8.856H23.6307V3.76ZM23.6307 13.896H27.8867V41H23.6307V13.896ZM62.6063 26.776C62.6063 28.9787 61.4676 31.1253 59.1902 33.216C56.9129 35.2693 53.9636 36.9307 50.3423 38.2C46.7209 39.432 43.0249 40.048 39.2543 40.048C37.0516 40.048 35.0729 39.432 33.3183 38.2C31.6009 36.968 30.7423 35.8293 30.7423 34.784C30.7423 33.7013 31.0596 33.16 31.6943 33.16C31.8436 33.16 32.5716 33.5707 33.8783 34.392C35.2223 35.176 36.6223 35.5867 38.0783 35.624C37.5556 35.3627 37.0516 34.8773 36.5663 34.168C36.1183 33.4587 35.8943 32.7867 35.8943 32.152C35.8943 31.5173 36.3423 29.744 37.2383 26.832C40.0009 18.0587 41.4196 11.32 41.4943 6.616H41.0463C40.3743 6.616 39.6836 6.20533 38.9743 5.384C38.2649 4.52533 37.9103 3.83466 37.9103 3.312C37.9103 2.67733 38.6943 2.136 40.2623 1.688C41.8676 1.20267 43.7903 0.959998 46.0303 0.959998C51.2569 0.959998 55.2889 1.66933 58.1263 3.088C60.9636 4.50666 62.3823 6.56 62.3823 9.248C62.3823 11.488 61.4303 13.5227 59.5263 15.352C57.6596 17.1813 54.9156 18.656 51.2943 19.776L51.7983 19.832C54.9343 20.0187 57.5103 20.784 59.5263 22.128C61.5796 23.472 62.6063 25.0213 62.6063 26.776ZM57.3423 9.528C57.3423 8.296 56.7076 7.344 55.4383 6.672C54.2063 5.96266 52.6943 5.608 50.9023 5.608C49.1476 5.608 47.0009 5.832 44.4623 6.28C45.5076 7.4 46.0303 8.48266 46.0303 9.528C46.0303 10.536 45.3769 13.616 44.0703 18.768C44.9663 18.208 46.3663 17.5733 48.2703 16.864C50.1743 16.1173 51.6676 15.464 52.7503 14.904C53.8703 14.344 54.6729 13.8587 55.1583 13.448C55.6809 13 56.1663 12.4213 56.6143 11.712C57.0996 11.0027 57.3423 10.2747 57.3423 9.528ZM57.7343 26.552C57.7343 25.432 56.4276 24.4987 53.8143 23.752C51.2383 22.968 48.6623 22.576 46.0863 22.576C45.0783 22.576 44.2009 22.0533 43.4543 21.008C41.1769 30.0053 39.6836 34.8773 38.9743 35.624C41.6249 35.5493 44.4063 35.0827 47.3183 34.224C50.2303 33.328 52.6943 32.1707 54.7103 30.752C56.7263 29.3333 57.7343 27.9333 57.7343 26.552ZM97.6465 20.672C97.6465 21.3813 96.0038 22.2027 92.7185 23.136C93.0172 27.0187 93.1665 30.3227 93.1665 33.048C93.1665 37.752 92.5692 40.104 91.3745 40.104C90.7398 40.104 90.2358 39.712 89.8625 38.928C89.4892 38.144 89.1905 36.7813 88.9665 34.84C88.7052 31.256 88.4252 27.7467 88.1265 24.312C86.4465 24.76 84.9158 25.1707 83.5345 25.544C82.1532 25.88 80.0625 26.44 77.2625 27.224C73.9772 35.8107 72.0358 40.104 71.4385 40.104C70.8412 40.104 70.1878 39.7493 69.4785 39.04C68.8065 38.2933 68.4705 37.5093 68.4705 36.688C68.4705 36.3147 69.5345 33.664 71.6625 28.736H71.2705C70.5238 28.736 69.8518 28.4933 69.2545 28.008C68.6945 27.5227 68.4145 26.9253 68.4145 26.216C68.4145 25.4693 70.2625 24.4987 73.9585 23.304C74.5558 21.96 75.0412 20.7467 75.4145 19.664C76.2732 17.536 77.4678 14.624 78.9985 10.928C80.5292 7.232 81.4998 4.88 81.9105 3.872C82.3212 2.82666 83.0305 1.94933 84.0385 1.24C85.0838 0.493332 86.0918 0.119999 87.0625 0.119999C88.2198 0.119999 89.2465 1.968 90.1425 5.664C91.0758 9.36 91.8225 13.9333 92.3825 19.384C93.4278 19.272 94.3425 19.216 95.1265 19.216C96.8065 19.216 97.6465 19.7013 97.6465 20.672ZM79.3345 21.848C81.9852 21.1387 84.7852 20.5413 87.7345 20.056C87.0625 13.672 86.4092 8.87467 85.7745 5.664C84.0945 9.50933 81.9478 14.904 79.3345 21.848ZM125.837 13.28C130.093 13.28 132.221 16.024 132.221 21.512V41H127.965V21.792C127.965 20.0373 127.666 18.824 127.069 18.152C126.471 17.4427 125.613 17.088 124.493 17.088C123.186 17.088 122.085 17.76 121.189 19.104C120.33 20.4107 119.901 22.2027 119.901 24.48V41H115.645V21.792C115.645 20.0373 115.327 18.824 114.693 18.152C114.095 17.4427 113.237 17.088 112.117 17.088C110.81 17.088 109.709 17.76 108.813 19.104C107.917 20.4107 107.469 22.2027 107.469 24.48V41H103.213V13.896H106.405L107.021 17.088H107.301C108.682 14.5493 110.735 13.28 113.461 13.28C116.335 13.28 118.258 14.6053 119.229 17.256C119.938 15.9867 120.871 15.016 122.029 14.344C123.223 13.6347 124.493 13.28 125.837 13.28ZM147.057 13.28C153.516 13.28 156.745 18.0213 156.745 27.504C156.745 36.912 153.516 41.616 147.057 41.616C140.561 41.616 137.313 36.912 137.313 27.504C137.313 18.0213 140.561 13.28 147.057 13.28ZM147.057 17.088C143.51 17.088 141.737 20.224 141.737 26.496V28.4C141.737 34.7093 143.51 37.864 147.057 37.864C150.566 37.864 152.321 34.7093 152.321 28.4V26.496C152.321 23.3973 151.873 21.064 150.977 19.496C150.118 17.8907 148.812 17.088 147.057 17.088ZM169.51 13.28C171.936 13.28 173.84 13.9893 175.222 15.408C176.603 16.8267 177.294 18.6 177.294 20.728L177.238 21.736H172.87V21.232C172.87 20.0373 172.571 19.048 171.974 18.264C171.376 17.4427 170.424 17.032 169.118 17.032C167.774 17.032 166.822 17.4053 166.262 18.152C165.739 18.8987 165.478 19.7573 165.478 20.728C165.478 21.848 165.87 22.7067 166.654 23.304C167.475 23.864 168.726 24.424 170.406 24.984C171.936 25.5067 173.187 26.048 174.158 26.608C175.166 27.1307 176.024 27.9333 176.734 29.016C177.443 30.0987 177.798 31.5173 177.798 33.272C177.798 36.072 177.014 38.1627 175.446 39.544C173.878 40.9253 171.787 41.616 169.174 41.616C166.262 41.616 164.078 40.8507 162.622 39.32C161.166 37.7893 160.438 35.904 160.438 33.664C160.438 33.2533 160.438 32.9733 160.438 32.824C160.475 32.6747 160.494 32.5813 160.494 32.544H164.918V33.104C164.918 34.7093 165.328 35.9227 166.15 36.744C166.971 37.528 168.035 37.92 169.342 37.92C170.499 37.92 171.47 37.5653 172.254 36.856C173.038 36.1467 173.43 35.1573 173.43 33.888C173.43 32.9173 173.187 32.1333 172.702 31.536C172.254 30.9013 171.675 30.416 170.966 30.08C170.294 29.7067 169.342 29.296 168.11 28.848C166.579 28.288 165.347 27.7653 164.414 27.28C163.518 26.7573 162.734 25.992 162.062 24.984C161.427 23.976 161.11 22.6507 161.11 21.008C161.11 18.6187 161.856 16.7333 163.35 15.352C164.88 13.9707 166.934 13.28 169.51 13.28Z" fill="#FBFBFB"/>
</svg>
