<svg width="188" height="33" viewBox="0 0 188 33" fill="none" xmlns="http://www.w3.org/2000/svg">
<path d="M37.582 32.1445V1.82581H54.2479C57.3237 1.82581 59.662 2.54768 61.2626 3.99143C62.8633 5.43517 63.6636 7.50664 63.6636 10.2058C63.6636 11.7751 63.3655 13.0933 62.7691 14.1604C62.2042 15.2275 61.4509 16.075 60.5094 16.7027C61.7962 17.2049 62.8162 17.9424 63.5695 18.9154C64.3541 19.857 64.7465 21.2693 64.7465 23.1525C64.7465 26.0086 63.8677 28.2213 62.11 29.7906C60.3524 31.3599 57.8573 32.1445 54.6245 32.1445H37.582Z" fill="#0085CA"/>
<path d="M65.467 32.1445L77.0954 1.82581H86.4641L98.0925 32.1445H88.8651L86.3229 25.6947H77.1896L74.6944 32.1445H65.467ZM78.3666 19.3391H85.1459L81.7562 10.4412L78.3666 19.3391Z" fill="#0085CA"/>
<path d="M49.3645 6.21594V28.0812H47.1831L48.2485 7.63642L49.3645 6.21594Z" fill="#FBFBFB"/>
<path fill-rule="evenodd" clip-rule="evenodd" d="M49.6707 4.94238L51.5421 7.29499L52.6654 28.739H46.5703L47.6937 7.29348L49.6707 4.94238ZM47.8894 7.3707L46.7805 28.5395H52.4552L51.3462 7.36919L49.6664 5.25744L47.8894 7.3707ZM49.4639 5.92761V28.181H47.0777L48.1501 7.59972L49.4639 5.92761ZM48.3461 7.67324L47.2878 27.9815H49.2644V6.50439L48.3461 7.67324Z" fill="#FBFBFB"/>
<path d="M130.238 9.1695C132.982 9.1695 135.188 10.0169 136.856 11.7118C138.55 13.3797 139.398 15.7202 139.398 18.7332V31.848H133.748V19.4999C133.748 17.7513 133.304 16.4196 132.417 15.505C131.529 14.5634 130.318 14.0926 128.785 14.0926C127.251 14.0926 126.027 14.5634 125.113 15.505C124.225 16.4196 123.781 17.7513 123.781 19.4999V31.848H118.132V19.4999C118.132 17.7513 117.688 16.4196 116.8 15.505C115.912 14.5634 114.702 14.0926 113.168 14.0926C111.608 14.0926 110.37 14.5634 109.456 15.505C108.568 16.4196 108.124 17.7513 108.124 19.4999V31.848H102.475V9.49233H108.124V12.196C108.85 11.2544 109.779 10.5146 110.908 9.97657C112.065 9.43852 113.33 9.1695 114.702 9.1695C116.45 9.1695 118.011 9.54613 119.383 10.2994C120.755 11.0257 121.817 12.0749 122.57 13.4469C123.297 12.1556 124.346 11.1199 125.718 10.3397C127.117 9.55958 128.623 9.1695 130.238 9.1695Z" fill="#002F6C"/>
<path d="M154.686 32.2112C152.533 32.2112 150.597 31.7404 148.875 30.7988C147.153 29.8303 145.794 28.4718 144.799 26.7231C143.831 24.9745 143.346 22.9568 143.346 20.6702C143.346 18.3835 143.844 16.3658 144.839 14.6172C145.862 12.8685 147.247 11.5234 148.996 10.5819C150.744 9.61339 152.695 9.12915 154.847 9.12915C156.999 9.12915 158.95 9.61339 160.698 10.5819C162.447 11.5234 163.819 12.8685 164.814 14.6172C165.837 16.3658 166.348 18.3835 166.348 20.6702C166.348 22.9568 165.823 24.9745 164.774 26.7231C163.752 28.4718 162.353 29.8303 160.577 30.7988C158.829 31.7404 156.865 32.2112 154.686 32.2112ZM154.686 27.2881C155.708 27.2881 156.663 27.046 157.551 26.5617C158.465 26.0506 159.192 25.2973 159.73 24.3019C160.268 23.3066 160.537 22.096 160.537 20.6702C160.537 18.5449 159.972 16.9173 158.842 15.7874C157.739 14.6306 156.38 14.0522 154.766 14.0522C153.152 14.0522 151.794 14.6306 150.691 15.7874C149.615 16.9173 149.077 18.5449 149.077 20.6702C149.077 22.7954 149.601 24.4365 150.65 25.5933C151.726 26.7231 153.072 27.2881 154.686 27.2881Z" fill="#002F6C"/>
<path d="M179.047 32.2112C177.217 32.2112 175.576 31.8883 174.124 31.2427C172.671 30.5701 171.514 29.6689 170.653 28.539C169.819 27.4091 169.362 26.1582 169.281 24.7862H174.971C175.079 25.6471 175.496 26.36 176.222 26.9249C176.975 27.4899 177.903 27.7723 179.006 27.7723C180.082 27.7723 180.916 27.5571 181.508 27.1267C182.127 26.6962 182.436 26.1447 182.436 25.4722C182.436 24.7458 182.06 24.2078 181.306 23.8581C180.58 23.4814 179.41 23.0779 177.796 22.6475C176.128 22.2439 174.756 21.827 173.68 21.3965C172.631 20.9661 171.716 20.307 170.936 19.4192C170.182 18.5314 169.806 17.3343 169.806 15.8278C169.806 14.5903 170.156 13.4604 170.855 12.4381C171.581 11.4158 172.604 10.6088 173.922 10.0169C175.267 9.42507 176.841 9.12915 178.643 9.12915C181.306 9.12915 183.432 9.8017 185.019 11.1468C186.606 12.465 187.48 14.254 187.642 16.5138H182.235C182.154 15.626 181.777 14.9266 181.105 14.4154C180.459 13.8774 179.585 13.6084 178.482 13.6084C177.459 13.6084 176.666 13.7967 176.101 14.1733C175.563 14.5499 175.294 15.0745 175.294 15.7471C175.294 16.5003 175.67 17.0787 176.424 17.4823C177.177 17.8589 178.347 18.249 179.934 18.6525C181.549 19.056 182.88 19.473 183.929 19.9035C184.979 20.3339 185.88 21.0064 186.633 21.9211C187.413 22.8089 187.817 23.9926 187.844 25.4722C187.844 26.7635 187.48 27.9203 186.754 28.9426C186.055 29.9648 185.032 30.7719 183.687 31.3638C182.369 31.9287 180.822 32.2112 179.047 32.2112Z" fill="#002F6C"/>
<path d="M8.59922 32.1344L0 10.2048H5.19632L11.3123 27.2303L17.4284 10.2048H22.5787L14.0255 32.1344H8.59922Z" fill="#002F6C"/>
<path d="M27.7276 5.62455V1.46069H33.1998V5.62455H27.7276ZM28.1415 32.1344V14.0448H24.8305L25.2904 10.2048H33.1538V32.1344H28.1415Z" fill="#002F6C"/>
</svg>
